<svg width="65" height="80" viewBox="0 0 65 80" fill="none" xmlns="http://www.w3.org/2000/svg">
<rect width="65" height="80" fill="currentColor"/>
<path d="M9.54 20.6H15.282C17.526 20.6 19.396 21.3407 20.892 22.822C22.4027 24.2887 23.158 26.1147 23.158 28.3C23.158 30.4853 22.4027 32.3187 20.892 33.8C19.396 35.2667 17.526 36 15.282 36H9.54V20.6ZM13.28 24.164V32.436H15.282C16.4993 32.436 17.4893 32.0547 18.252 31.292C19.0293 30.5293 19.418 29.532 19.418 28.3C19.418 27.068 19.0293 26.0707 18.252 25.308C17.4893 24.5453 16.4993 24.164 15.282 24.164H13.28ZM26.5573 22.624C28.112 21.084 30.026 20.314 32.2993 20.314C34.5727 20.314 36.4793 21.084 38.0193 22.624C39.574 24.1493 40.3513 26.0413 40.3513 28.3C40.3513 30.5587 39.574 32.458 38.0193 33.998C36.4793 35.5233 34.5727 36.286 32.2993 36.286C30.026 36.286 28.112 35.5233 26.5573 33.998C25.0173 32.458 24.2473 30.5587 24.2473 28.3C24.2473 26.0413 25.0173 24.1493 26.5573 22.624ZM35.3573 25.132C34.5507 24.296 33.5313 23.878 32.2993 23.878C31.0673 23.878 30.048 24.296 29.2413 25.132C28.4347 25.9533 28.0313 27.0093 28.0313 28.3C28.0313 29.5907 28.4347 30.654 29.2413 31.49C30.048 32.3113 31.0673 32.722 32.2993 32.722C33.5313 32.722 34.5507 32.3113 35.3573 31.49C36.164 30.654 36.5673 29.5907 36.5673 28.3C36.5673 27.0093 36.164 25.9533 35.3573 25.132ZM49.4929 20.314C51.4435 20.314 53.1302 20.886 54.5529 22.03C55.9902 23.174 56.8995 24.6553 57.2809 26.474H53.3429C53.0495 25.682 52.5582 25.0513 51.8689 24.582C51.1942 24.1127 50.4022 23.878 49.4929 23.878C48.2609 23.878 47.2415 24.296 46.4349 25.132C45.6282 25.968 45.2249 27.024 45.2249 28.3C45.2249 29.5907 45.6282 30.654 46.4349 31.49C47.2415 32.3113 48.2609 32.722 49.4929 32.722C50.0942 32.722 50.6515 32.6193 51.1649 32.414C51.6782 32.194 52.1182 31.8933 52.4849 31.512C52.8662 31.116 53.1522 30.6613 53.3429 30.148H57.2809C56.8995 31.952 55.9902 33.426 54.5529 34.57C53.1302 35.714 51.4435 36.286 49.4929 36.286C48.3782 36.286 47.3222 36.0807 46.3249 35.67C45.3275 35.2593 44.4695 34.702 43.7509 33.998C43.0469 33.294 42.4822 32.4507 42.0569 31.468C41.6462 30.4707 41.4409 29.4147 41.4409 28.3C41.4409 26.0413 42.2109 24.1493 43.7509 22.624C45.3055 21.084 47.2195 20.314 49.4929 20.314Z" fill="white"/>
<line x1="10" y1="69.5" x2="56" y2="69.5" stroke="white"/>
<line x1="32.5" y1="70" x2="32.5" y2="50" stroke="white"/>
</svg>
