<svg width="250" height="51" viewBox="0 0 250 51" fill="none" xmlns="http://www.w3.org/2000/svg">
<path d="M29.9274 36.5546H31.5234V44.9546H30.1674V38.3906L27.5754 42.3026H27.4434L24.8634 38.3906V44.9546H23.5074V36.5546H25.1034L27.5154 40.1786L29.9274 36.5546ZM49.1412 37.6586C49.9812 36.8266 51.0172 36.4106 52.2492 36.4106C53.4812 36.4106 54.5132 36.8266 55.3452 37.6586C56.1772 38.4906 56.5972 39.5226 56.6052 40.7546C56.5972 41.9866 56.1772 43.0186 55.3452 43.8506C54.5132 44.6826 53.4812 45.0986 52.2492 45.0986C51.0172 45.0986 49.9812 44.6826 49.1412 43.8506C48.3092 43.0186 47.8932 41.9866 47.8932 40.7546C47.8932 39.5226 48.3092 38.4906 49.1412 37.6586ZM52.2492 37.7066C51.3932 37.7066 50.6812 37.9986 50.1132 38.5826C49.5452 39.1586 49.2612 39.8826 49.2612 40.7546C49.2612 41.6266 49.5452 42.3546 50.1132 42.9386C50.6812 43.5146 51.3932 43.8026 52.2492 43.8026C53.0972 43.8026 53.8052 43.5146 54.3732 42.9386C54.9412 42.3546 55.2252 41.6266 55.2252 40.7546C55.2252 39.8826 54.9412 39.1586 54.3732 38.5826C53.8052 37.9986 53.0972 37.7066 52.2492 37.7066ZM74.4834 36.5546H79.7274V44.9546H78.3714V37.8506H75.6234L74.8914 42.3866C74.7314 43.3466 74.4754 44.0386 74.1234 44.4626C73.7714 44.8866 73.3034 45.0986 72.7194 45.0986C72.4954 45.0986 72.2474 45.0746 71.9754 45.0266V43.8026C72.2394 43.8266 72.3994 43.8386 72.4554 43.8386C72.7754 43.8386 73.0114 43.7306 73.1634 43.5146C73.3234 43.2906 73.4554 42.8746 73.5594 42.2666L74.4834 36.5546ZM97.3408 37.6586C98.1808 36.8266 99.2168 36.4106 100.449 36.4106C101.681 36.4106 102.713 36.8266 103.545 37.6586C104.377 38.4906 104.797 39.5226 104.805 40.7546C104.797 41.9866 104.377 43.0186 103.545 43.8506C102.713 44.6826 101.681 45.0986 100.449 45.0986C99.2168 45.0986 98.1808 44.6826 97.3408 43.8506C96.5088 43.0186 96.0928 41.9866 96.0928 40.7546C96.0928 39.5226 96.5088 38.4906 97.3408 37.6586ZM100.449 37.7066C99.5928 37.7066 98.8808 37.9986 98.3128 38.5826C97.7448 39.1586 97.4608 39.8826 97.4608 40.7546C97.4608 41.6266 97.7448 42.3546 98.3128 42.9386C98.8808 43.5146 99.5928 43.8026 100.449 43.8026C101.297 43.8026 102.005 43.5146 102.573 42.9386C103.141 42.3546 103.425 41.6266 103.425 40.7546C103.425 39.8826 103.141 39.1586 102.573 38.5826C102.005 37.9986 101.297 37.7066 100.449 37.7066ZM127.941 43.6586H129.141V46.6706H127.785V44.9546H121.437V46.6706H120.081V43.6586H121.269C121.493 43.4746 121.669 43.0106 121.797 42.2666L122.721 36.5546H127.941V43.6586ZM123.129 42.3866C123.033 42.9706 122.913 43.3946 122.769 43.6586H126.585V37.8506H123.861L123.129 42.3866ZM150.746 37.8506H146.618V40.0226H150.446V41.3186H146.618V43.6586H150.746V44.9546H145.262V36.5546H150.746V37.8506ZM177.843 44.9546H176.151L172.779 40.9586V44.9546H171.423V40.9586L168.051 44.9546H166.371L169.959 40.6466L166.527 36.5546H168.195L171.423 40.3706V36.5546H172.779V40.3706L176.007 36.5546H177.675L174.243 40.6466L177.843 44.9546ZM199.606 36.5546H200.962V44.9546H199.606V41.2826H195.298V44.9546H193.942V36.5546H195.298V39.9866H199.606V36.5546ZM218.567 37.6586C219.407 36.8266 220.443 36.4106 221.675 36.4106C222.907 36.4106 223.939 36.8266 224.771 37.6586C225.603 38.4906 226.023 39.5226 226.031 40.7546C226.023 41.9866 225.603 43.0186 224.771 43.8506C223.939 44.6826 222.907 45.0986 221.675 45.0986C220.443 45.0986 219.407 44.6826 218.567 43.8506C217.735 43.0186 217.319 41.9866 217.319 40.7546C217.319 39.5226 217.735 38.4906 218.567 37.6586ZM221.675 37.7066C220.819 37.7066 220.107 37.9986 219.539 38.5826C218.971 39.1586 218.687 39.8826 218.687 40.7546C218.687 41.6266 218.971 42.3546 219.539 42.9386C220.107 43.5146 220.819 43.8026 221.675 43.8026C222.523 43.8026 223.231 43.5146 223.799 42.9386C224.367 42.3546 224.651 41.6266 224.651 40.7546C224.651 39.8826 224.367 39.1586 223.799 38.5826C223.231 37.9986 222.523 37.7066 221.675 37.7066Z" fill="#454BD5"/>
<rect x="166.927" width="6.40533" height="24.5965" fill="url(#paint0_linear)"/>
<rect width="6.40533" height="24.5965" transform="matrix(1 0 0 -1 176.027 24.6577)" fill="url(#paint1_linear)"/>
<rect x="185.118" width="6.40533" height="24.5965" fill="url(#paint2_linear)"/>
<rect x="161.411" y="18.187" width="6.47043" height="24.6576" transform="rotate(90 161.411 18.187)" fill="url(#paint3_linear)"/>
<rect x="161.411" width="6.47043" height="24.6576" transform="rotate(90 161.411 0)" fill="url(#paint4_linear)"/>
<rect x="136.754" y="15.564" width="6.47043" height="24.6576" transform="rotate(-90 136.754 15.564)" fill="url(#paint5_linear)"/>
<rect width="24.6576" height="24.4827" transform="matrix(-1 0 0 1 221.744 0.174805)" fill="url(#paint6_angular)"/>
<path d="M79.1829 24.6577L52.6106 24.6577L65.8639 0.129419L79.1829 24.6577Z" fill="url(#paint7_angular)"/>
<path d="M52.4624 24.6577L79.2185 24.6577L65.8735 0.000150097L52.4624 24.6577Z" fill="url(#paint8_angular)"/>
<path fill-rule="evenodd" clip-rule="evenodd" d="M40.3089 17.1403C42.9662 17.1403 45.1204 14.9861 45.1204 12.3288C45.1204 9.67147 42.9662 7.5173 40.3089 7.5173C37.6516 7.5173 35.4974 9.67147 35.4974 12.3288C35.4974 14.9861 37.6516 17.1403 40.3089 17.1403ZM40.3089 24.6576C47.1179 24.6576 52.6377 19.1378 52.6377 12.3288C52.6377 5.51978 47.1179 0 40.3089 0C33.4999 0 27.9801 5.51978 27.9801 12.3288C27.9801 19.1378 33.4999 24.6576 40.3089 24.6576Z" fill="url(#paint9_angular)"/>
<path fill-rule="evenodd" clip-rule="evenodd" d="M40.3089 17.1403C42.9662 17.1403 45.1204 14.9861 45.1204 12.3288C45.1204 9.67147 42.9662 7.5173 40.3089 7.5173C37.6516 7.5173 35.4974 9.67147 35.4974 12.3288C35.4974 14.9861 37.6516 17.1403 40.3089 17.1403ZM40.3089 24.6576C47.1179 24.6576 52.6377 19.1378 52.6377 12.3288C52.6377 5.51978 47.1179 0 40.3089 0C33.4999 0 27.9801 5.51978 27.9801 12.3288C27.9801 19.1378 33.4999 24.6576 40.3089 24.6576Z" fill="url(#paint10_radial)"/>
<path fill-rule="evenodd" clip-rule="evenodd" d="M91.5479 17.1403C88.8906 17.1403 86.7364 14.9861 86.7364 12.3288C86.7364 9.67147 88.8906 7.5173 91.5479 7.5173C94.2052 7.5173 96.3594 9.67147 96.3594 12.3288C96.3594 14.9861 94.2052 17.1403 91.5479 17.1403ZM91.5479 24.6576C84.7389 24.6576 79.2191 19.1378 79.2191 12.3288C79.2191 5.51978 84.7389 0 91.5479 0C98.3569 0 103.877 5.51978 103.877 12.3288C103.877 19.1378 98.3569 24.6576 91.5479 24.6576Z" fill="url(#paint11_radial)"/>
<circle cx="237.796" cy="12.3791" r="12.2043" fill="url(#paint12_angular)"/>
<path d="M119.878 -5.38909e-07C126.687 -2.41278e-07 132.207 5.51978 132.207 12.3288C132.207 19.1378 126.687 24.6576 119.878 24.6576L107.724 24.6576L107.724 -1.07017e-06L119.878 -5.38909e-07Z" fill="url(#paint13_angular)"/>
<path d="M0 0L12.2988 12.2709L24.4827 24.6576L2.14912e-06 24.6576L0 0Z" fill="url(#paint14_angular)"/>
<path d="M24.484 0L12.1852 12.2709L0.00132155 24.6576L24.484 24.6576L24.484 0Z" fill="url(#paint15_linear)"/>
<defs>
<linearGradient id="paint0_linear" x1="170.129" y1="0" x2="170.129" y2="24.5965" gradientUnits="userSpaceOnUse">
<stop stop-color="#4147D2"/>
<stop offset="1" stop-color="#7277F5"/>
</linearGradient>
<linearGradient id="paint1_linear" x1="3.20266" y1="0" x2="3.20266" y2="24.5965" gradientUnits="userSpaceOnUse">
<stop stop-color="#4147D2"/>
<stop offset="1" stop-color="#7277F5"/>
</linearGradient>
<linearGradient id="paint2_linear" x1="188.32" y1="0" x2="188.32" y2="24.5965" gradientUnits="userSpaceOnUse">
<stop stop-color="#4147D2"/>
<stop offset="1" stop-color="#7277F5"/>
</linearGradient>
<linearGradient id="paint3_linear" x1="164.646" y1="18.187" x2="164.646" y2="42.8446" gradientUnits="userSpaceOnUse">
<stop stop-color="#4147D2"/>
<stop offset="1" stop-color="#7277F5"/>
</linearGradient>
<linearGradient id="paint4_linear" x1="164.646" y1="0" x2="164.646" y2="24.6576" gradientUnits="userSpaceOnUse">
<stop stop-color="#4147D2"/>
<stop offset="1" stop-color="#7277F5"/>
</linearGradient>
<linearGradient id="paint5_linear" x1="139.989" y1="15.564" x2="139.989" y2="40.2215" gradientUnits="userSpaceOnUse">
<stop stop-color="#4147D2"/>
<stop offset="1" stop-color="#7277F5"/>
</linearGradient>
<radialGradient id="paint6_angular" cx="0" cy="0" r="1" gradientUnits="userSpaceOnUse" gradientTransform="translate(12.3288 12.2413) rotate(90) scale(12.2413 12.3288)">
<stop stop-color="#4147D2"/>
<stop offset="1" stop-color="#7277F5"/>
</radialGradient>
<radialGradient id="paint7_angular" cx="0" cy="0" r="1" gradientUnits="userSpaceOnUse" gradientTransform="translate(65.8968 12.3936) scale(13.2862 12.2641)">
<stop stop-color="#4147D2"/>
<stop offset="1" stop-color="#7277F5"/>
</radialGradient>
<radialGradient id="paint8_angular" cx="0" cy="0" r="1" gradientUnits="userSpaceOnUse" gradientTransform="translate(65.8405 12.3289) rotate(90) scale(7.40644 6.8479)">
<stop stop-color="#4147D2"/>
<stop offset="1" stop-color="#7277F5"/>
</radialGradient>
<radialGradient id="paint9_angular" cx="0" cy="0" r="1" gradientUnits="userSpaceOnUse" gradientTransform="translate(40.3089 12.3288) rotate(90) scale(12.3288)">
<stop stop-color="#4147D2"/>
<stop offset="1" stop-color="#7277F5"/>
</radialGradient>
<radialGradient id="paint10_radial" cx="0" cy="0" r="1" gradientUnits="userSpaceOnUse" gradientTransform="translate(40.3089 12.3288) rotate(90) scale(12.3288)">
<stop offset="0.598327" stop-color="#4147D2"/>
<stop offset="1" stop-color="#7277F5"/>
</radialGradient>
<radialGradient id="paint11_radial" cx="0" cy="0" r="1" gradientUnits="userSpaceOnUse" gradientTransform="translate(91.5479 12.3288) rotate(90) scale(12.3288)">
<stop stop-color="#7277F5"/>
<stop offset="1" stop-color="#4147D2"/>
</radialGradient>
<radialGradient id="paint12_angular" cx="0" cy="0" r="1" gradientUnits="userSpaceOnUse" gradientTransform="translate(237.796 12.3791) rotate(90) scale(12.2043)">
<stop stop-color="#4147D2"/>
<stop offset="1" stop-color="#7277F5"/>
</radialGradient>
<radialGradient id="paint13_angular" cx="0" cy="0" r="1" gradientUnits="userSpaceOnUse" gradientTransform="translate(119.965 12.3288) rotate(-180) scale(12.2413 12.3288)">
<stop stop-color="#4147D2"/>
<stop offset="1" stop-color="#7277F5"/>
</radialGradient>
<radialGradient id="paint14_angular" cx="0" cy="0" r="1" gradientUnits="userSpaceOnUse" gradientTransform="translate(12.2413 12.3288) rotate(90) scale(12.3288 12.2413)">
<stop stop-color="#4147D2"/>
<stop offset="1" stop-color="#7277F5"/>
</radialGradient>
<linearGradient id="paint15_linear" x1="12.2427" y1="-1.07342e-06" x2="12.2427" y2="24.6576" gradientUnits="userSpaceOnUse">
<stop offset="0.228529" stop-color="#4147D2"/>
<stop offset="1" stop-color="#7277F5"/>
</linearGradient>
</defs>
</svg>
