<svg width="65" height="80" viewBox="0 0 65 80" xmlns="http://www.w3.org/2000/svg">
<rect width="65" height="80"/>
<path d="M24.354 31.16H16.28V36H12.54V20.6H24.354V31.16ZM16.28 24.164V27.596H20.614V24.164H16.28ZM27.3213 20.6H33.0633C35.3073 20.6 37.1773 21.3407 38.6733 22.822C40.1839 24.2887 40.9393 26.1147 40.9393 28.3C40.9393 30.4853 40.1839 32.3187 38.6733 33.8C37.1773 35.2667 35.3073 36 33.0633 36H27.3213V20.6ZM31.0613 24.164V32.436H33.0633C34.2806 32.436 35.2706 32.0547 36.0333 31.292C36.8106 30.5293 37.1993 29.532 37.1993 28.3C37.1993 27.068 36.8106 26.0707 36.0333 25.308C35.2706 24.5453 34.2806 24.164 33.0633 24.164H31.0613ZM53.9526 24.164H47.0886V26.606H53.4466V30.17H47.0886V36H43.3486V20.6H53.9526V24.164Z" fill="white"/>
<line x1="10" y1="69.5" x2="56" y2="69.5" stroke="white"/>
<line x1="32.5" y1="70" x2="32.5" y2="50" stroke="white"/>
</svg>
