<svg width="49" height="30" viewBox="0 0 49 30" fill="none" xmlns="http://www.w3.org/2000/svg">
<path d="M48.5464 21.8663C48.3177 21.761 47.8955 21.6557 47.5144 22.0067C46.066 23.3583 42.5419 25.8684 37.5401 26.0381C26.6863 26.3891 16.7883 18.7536 16.2371 17.9345C21.0336 16.9574 23.297 14.5058 23.901 11.5042C24.5577 8.25108 23.1504 5.07985 20.5528 3.26605C19.3214 2.41181 16.3602 0.358102 10.0449 0.0187448C7.99847 -0.0865728 5.03727 0.258642 3.64755 0.884697C0.26416 2.4118 -0.539172 5.29635 0.316938 7.54897C0.750857 8.68991 1.81806 9.30427 2.73867 9.30427C3.47164 9.30427 3.57132 8.86544 3.57132 8.86544C2.62139 8.40322 1.55419 7.67769 1.84738 6.20909C2.25198 4.13785 6.22762 3.73412 9.1595 3.73412C12.5605 3.73412 15.4982 4.26656 17.8789 5.60059C19.7319 6.64206 20.975 7.7713 21.274 9.5149C22.1301 14.4531 17.1987 16.4893 15.4103 16.5361C15.4103 16.5361 18.0548 10.7377 17.8613 8.53777C17.7675 7.44364 16.5478 6.85271 15.205 6.85271C14.7183 10.1117 11.8041 18.8882 8.53207 23.6567C8.53207 23.6567 8.97772 24.3179 10.3205 23.9142C12.5957 23.2355 14.4721 18.5956 14.4721 18.5956C20.4179 24.4466 29.0201 28.7061 31.8992 29.4082C34.3268 30.005 38.0561 30.3737 40.8062 29.3965C44.8464 27.963 48.4291 24.0136 48.9627 22.6328C49.1269 22.1823 48.7047 21.9424 48.5464 21.8663Z" fill="currentColor"/>
</svg>
