<svg width="25" height="25" viewBox="0 0 25 25" fill="none" xmlns="http://www.w3.org/2000/svg">
<path d="M5.47713 17.9787C2.45689 17.9787 0 15.5201 0 12.4996C0 9.4813 2.45689 7.02441 5.47713 7.02441C8.49877 7.02441 10.9557 9.48102 10.9557 12.4996C10.9557 15.5201 8.49877 17.9787 5.47713 17.9787ZM5.47713 9.49186C3.81873 9.49186 2.46911 10.8418 2.46911 12.4996C2.46911 14.158 3.81873 15.5082 5.47713 15.5082C7.13525 15.5082 8.48654 14.1583 8.48654 12.4996C8.48654 10.8418 7.13525 9.49186 5.47713 9.49186Z" fill="currentColor"/>
<path d="M19.5215 10.9559C16.4982 10.9559 14.043 8.49627 14.043 5.47741C14.043 2.45689 16.4982 0 19.5215 0C22.5417 0 25.0003 2.45689 25.0003 5.47741C25.0003 8.49627 22.5417 10.9559 19.5215 10.9559ZM19.5215 2.46912C17.8634 2.46912 16.5104 3.81901 16.5104 5.47741C16.5104 7.13581 17.8634 8.48682 19.5215 8.48682C21.1799 8.48682 22.5295 7.13581 22.5295 5.47741C22.5295 3.81901 21.1799 2.46912 19.5215 2.46912Z" fill="currentColor"/>
<path d="M19.5215 24.9967C16.4982 24.9967 14.043 22.5382 14.043 19.521C14.043 16.501 16.4982 14.0425 19.5215 14.0425C22.5417 14.0425 25.0003 16.501 25.0003 19.521C25.0003 22.5382 22.5417 24.9967 19.5215 24.9967ZM19.5215 16.5133C17.8634 16.5133 16.5104 17.8623 16.5104 19.5207C16.5104 21.1791 17.8634 22.529 19.5215 22.529C21.1799 22.529 22.5295 21.1791 22.5295 19.5207C22.5295 17.8623 21.1799 16.5133 19.5215 16.5133Z" fill="currentColor"/>
<path d="M15.7282 18.8599C15.5417 18.8599 15.3555 18.8173 15.1781 18.7317L8.71771 15.5006C8.10849 15.1948 7.86113 14.4564 8.16519 13.8455C8.47063 13.2349 9.2127 12.9836 9.82192 13.2896L16.2837 16.5203C16.8944 16.826 17.1389 17.5681 16.8338 18.1787C16.6167 18.6095 16.1804 18.8599 15.7282 18.8599Z" fill="currentColor"/>
<path d="M9.27059 11.8378C8.81867 11.8378 8.38372 11.5902 8.16665 11.1536C7.85982 10.5446 8.10857 9.80421 8.71918 9.50016L15.1766 6.26785C15.7844 5.96408 16.5295 6.20976 16.835 6.82037C17.1404 7.43126 16.89 8.17305 16.2791 8.4771L9.82172 11.7066C9.64634 11.7981 9.4568 11.8378 9.27059 11.8378Z" fill="currentColor"/>
</svg>
