<svg width="220" height="294" viewBox="0 0 220 294" fill="none" xmlns="http://www.w3.org/2000/svg">
<rect x="79.9141" y="147.739" width="17.3197" height="66.5078" fill="url(#paint0_linear)"/>
<rect width="17.3197" height="66.5078" transform="matrix(1 0 0 -1 104.508 214.241)" fill="url(#paint1_linear)"/>
<rect x="129.094" y="148" width="17.3197" height="66.5078" fill="url(#paint2_linear)"/>
<rect y="214.512" width="17.3197" height="72.2268" transform="rotate(-90 0 214.512)" fill="url(#paint3_linear)"/>
<rect x="0.00366211" y="189.921" width="17.3197" height="72.2268" transform="rotate(-90 0.00366211 189.921)" fill="url(#paint4_linear)"/>
<rect y="165.328" width="17.3197" height="72.2268" transform="rotate(-90 0 165.328)" fill="url(#paint5_linear)"/>
<rect x="153.675" y="147.53" width="66.3235" height="66.3235" fill="url(#paint6_angular)"/>
<path d="M71.8504 140.087L0 140.087L35.8365 73.7635L71.8504 140.087Z" fill="url(#paint7_angular)"/>
<path fill-rule="evenodd" clip-rule="evenodd" d="M186.837 46.1036C193.985 46.1036 199.779 40.3093 199.779 33.1617C199.779 26.0142 193.985 20.2199 186.837 20.2199C179.689 20.2199 173.895 26.0142 173.895 33.1617C173.895 40.3093 179.689 46.1036 186.837 46.1036ZM186.837 66.3235C205.152 66.3235 219.999 51.4765 219.999 33.1617C219.999 14.847 205.152 0 186.837 0C168.522 0 153.675 14.847 153.675 33.1617C153.675 51.4765 168.522 66.3235 186.837 66.3235Z" fill="url(#paint8_radial)"/>
<circle cx="115.118" cy="257.407" r="36.114" fill="url(#paint9_angular)"/>
<path fill-rule="evenodd" clip-rule="evenodd" d="M113.076 119.869C120.223 119.869 126.018 114.074 126.018 106.927C126.018 99.7793 120.223 93.985 113.076 93.985C105.928 93.985 100.134 99.7793 100.134 106.927C100.134 114.074 105.928 119.869 113.076 119.869ZM113.076 140.089C131.391 140.089 146.238 125.242 146.238 106.927C146.238 88.6122 131.391 73.7651 113.076 73.7651C94.7611 73.7651 79.9141 88.6122 79.9141 106.927C79.9141 125.242 94.7611 140.089 113.076 140.089Z" fill="url(#paint10_radial)"/>
<path d="M186.596 73.7646C204.911 73.7646 219.758 88.6117 219.758 106.926C219.758 125.241 204.911 140.088 186.596 140.088L153.434 140.088L153.434 73.7646L186.596 73.7646Z" fill="url(#paint11_angular)"/>
<path d="M80.0039 0L113.159 32.8451L146.004 66L80.0039 66.0001L80.0039 0Z" fill="url(#paint12_linear)"/>
<path d="M146 0L112.846 32.8451L80.0004 66L146 66.0001L146 0Z" fill="url(#paint13_linear)"/>
<defs>
<linearGradient id="paint0_linear" x1="88.5739" y1="147.739" x2="88.5739" y2="214.247" gradientUnits="userSpaceOnUse">
<stop stop-color="#4147D2"/>
<stop offset="1" stop-color="#7277F5"/>
</linearGradient>
<linearGradient id="paint1_linear" x1="8.65987" y1="0" x2="8.65987" y2="66.5078" gradientUnits="userSpaceOnUse">
<stop stop-color="#4147D2"/>
<stop offset="1" stop-color="#7277F5"/>
</linearGradient>
<linearGradient id="paint2_linear" x1="137.754" y1="148" x2="137.754" y2="214.508" gradientUnits="userSpaceOnUse">
<stop stop-color="#4147D2"/>
<stop offset="1" stop-color="#7277F5"/>
</linearGradient>
<linearGradient id="paint3_linear" x1="8.65987" y1="214.512" x2="8.65987" y2="286.738" gradientUnits="userSpaceOnUse">
<stop stop-color="#4147D2"/>
<stop offset="1" stop-color="#7277F5"/>
</linearGradient>
<linearGradient id="paint4_linear" x1="8.66353" y1="189.921" x2="8.66353" y2="262.148" gradientUnits="userSpaceOnUse">
<stop stop-color="#4147D2"/>
<stop offset="1" stop-color="#7277F5"/>
</linearGradient>
<linearGradient id="paint5_linear" x1="8.65987" y1="165.328" x2="8.65987" y2="237.555" gradientUnits="userSpaceOnUse">
<stop stop-color="#4147D2"/>
<stop offset="1" stop-color="#7277F5"/>
</linearGradient>
<radialGradient id="paint6_angular" cx="0" cy="0" r="1" gradientUnits="userSpaceOnUse" gradientTransform="translate(186.837 180.692) rotate(90) scale(33.1617)">
<stop stop-color="#4147D2"/>
<stop offset="1" stop-color="#7277F5"/>
</radialGradient>
<radialGradient id="paint7_angular" cx="0" cy="0" r="1" gradientUnits="userSpaceOnUse" gradientTransform="translate(35.9252 106.925) rotate(90) scale(19.9217 18.3893)">
<stop stop-color="#4147D2"/>
<stop offset="1" stop-color="#7277F5"/>
</radialGradient>
<radialGradient id="paint8_radial" cx="0" cy="0" r="1" gradientUnits="userSpaceOnUse" gradientTransform="translate(186.837 33.1617) rotate(90) scale(33.1617)">
<stop offset="0.598327" stop-color="#4147D2"/>
<stop offset="1" stop-color="#7277F5"/>
</radialGradient>
<radialGradient id="paint9_angular" cx="0" cy="0" r="1" gradientUnits="userSpaceOnUse" gradientTransform="translate(115.118 257.407) rotate(90) scale(36.114)">
<stop stop-color="#4147D2"/>
<stop offset="1" stop-color="#7277F5"/>
</radialGradient>
<radialGradient id="paint10_radial" cx="0" cy="0" r="1" gradientUnits="userSpaceOnUse" gradientTransform="translate(113.076 106.927) rotate(90) scale(33.1617)">
<stop stop-color="#7277F5"/>
<stop offset="1" stop-color="#4147D2"/>
</radialGradient>
<radialGradient id="paint11_angular" cx="0" cy="0" r="1" gradientUnits="userSpaceOnUse" gradientTransform="translate(186.596 106.926) rotate(-180) scale(33.1617)">
<stop stop-color="#4147D2"/>
<stop offset="1" stop-color="#7277F5"/>
</radialGradient>
<linearGradient id="paint12_linear" x1="99.0039" y1="12.5" x2="130.004" y2="63.5001" gradientUnits="userSpaceOnUse">
<stop stop-color="#373CB2"/>
<stop offset="1" stop-color="#646AF4"/>
</linearGradient>
<linearGradient id="paint13_linear" x1="113" y1="-2.88495e-06" x2="113" y2="66.0001" gradientUnits="userSpaceOnUse">
<stop offset="0.228529" stop-color="#4147D2"/>
<stop offset="1" stop-color="#7277F5"/>
</linearGradient>
</defs>
</svg>
