<svg width="35" height="50" viewBox="0 0 35 50" fill="none" xmlns="http://www.w3.org/2000/svg">
<path d="M17.5008 3.87974e-06C14.5528 -0.0019927 11.6521 0.766649 9.06826 2.2345C6.48445 3.70236 4.30139 5.82179 2.72193 8.39585C1.14246 10.9699 0.217864 13.9151 0.0340377 16.9577C-0.149789 20.0002 0.413128 23.0415 1.67048 25.7989C2.01728 26.5369 2.41512 27.2481 2.86092 27.9269L16.9056 49.6726C16.9706 49.7726 17.0582 49.8547 17.1608 49.9118C17.2634 49.9689 17.378 49.9991 17.4945 50C17.6121 50.0002 17.7279 49.9704 17.8317 49.9133C17.9355 49.8562 18.0241 49.7735 18.0897 49.6726L32.0204 28.0644C32.5371 27.2986 32.9965 26.493 33.3945 25.6548C34.6228 22.8985 35.1607 19.8668 34.9584 16.8391C34.7562 13.8114 33.8204 10.885 32.2372 8.32955C30.654 5.77407 28.4744 3.67166 25.8991 2.21601C23.3238 0.760369 20.4357 -0.00170243 17.5008 3.87974e-06Z" fill="url(#paint0_angular)"/>
<defs>
<radialGradient id="paint0_angular" cx="0" cy="0" r="1" gradientUnits="userSpaceOnUse" gradientTransform="translate(17.5 25) rotate(90) scale(25 17.5)">
<stop stop-color="#4147D2"/>
<stop offset="1" stop-color="#7277F5"/>
</radialGradient>
</defs>
</svg>
