<svg width="222" height="151" viewBox="0 0 222 151" fill="none" xmlns="http://www.w3.org/2000/svg">
<path d="M0.499969 75.1724C0.499969 116.311 42.5975 149.845 94.7826 149.845C146.968 149.845 189.065 116.311 189.065 75.1724C189.065 34.0338 146.968 0.5 94.7826 0.5C42.5975 0.5 0.499969 34.0338 0.499969 75.1724Z" stroke="black"/>
<path d="M168.001 118L178.001 114L192.501 98L188.001 90.5L185.501 89.5H184.501L179.001 90L168.001 118Z" fill="white"/>
<line y1="-0.5" x2="65.3673" y2="-0.5" transform="matrix(-1 0 0 1 127.468 55.7915)" stroke="black"/>
<line y1="-0.5" x2="65.3673" y2="-0.5" transform="matrix(-1 0 0 1 127.468 76.0166)" stroke="black"/>
<line y1="-0.5" x2="65.3673" y2="-0.5" transform="matrix(-1 0 0 1 127.468 96)" stroke="black"/>
<line x1="220.886" y1="97.4867" x2="186.886" y2="89.4867" stroke="black"/>
<line x1="221.185" y1="97.4649" x2="173.185" y2="116.465" stroke="black"/>
</svg>
