<svg width="150" height="107" viewBox="0 0 150 107" fill="none" xmlns="http://www.w3.org/2000/svg">
<path d="M1.21489 53.5C1.21489 82.6692 31.0781 106.5 68.1714 106.5C105.265 106.5 135.128 82.6692 135.128 53.5C135.128 24.3308 105.265 0.5 68.1714 0.5C31.0781 0.5 1.21489 24.3308 1.21489 53.5Z" stroke="black"/>
<line y1="-0.5" x2="46.5217" y2="-0.5" transform="matrix(-1 0 0 1 91.4331 39.7065)" stroke="black"/>
<line y1="-0.5" x2="46.5217" y2="-0.5" transform="matrix(-1 0 0 1 91.4331 54.1006)" stroke="black"/>
<line y1="-0.5" x2="46.5217" y2="-0.5" transform="matrix(-1 0 0 1 91.4331 68.3228)" stroke="black"/>
<path d="M149.136 96.9442L127.5 78.4999" stroke="black"/>
<line x1="149.408" y1="97.0676" x2="112.939" y2="92.6079" stroke="black"/>
</svg>
